#!OML:ASF H:\Terrain\Patient Classification 1\Terrain2\Thursday\justin.ASF
:FULLY-SPECIFIED
:DEGREES
2240
root -1.11347 17.143 -21.9891 -360.308 -23.9709 -0.237229
lowerback 3.9436 -0.269403 1.42468
upperback 1.93072 -0.309081 3.70964
thorax -0.214654 -0.170756 3.02649
lowerneck -13.1148 1.1604 -7.32865
upperneck 38.0413 3.24368 0.960322
head 15.4554 0.327459 2.21522
rclavicle 3.93594e-014 -9.54166e-015
rhumerus -34.3275 -12.4338 -74.3329
rradius 25.8732
rwrist -7.54366
rhand -21.1321 12.3394
rfingers 7.12502
rthumb 5.24683 -17.5757
lclavicle 3.93594e-014 -9.54166e-015
lhumerus -34.3155 6.96926 85.7041
lradius 32.1875
lwrist 3.43162
lhand -16.1917 24.1764
lfingers 7.12502
lthumb 10.0152 53.9181
rfemur -12.9559 -22.9889 23.7847
rtibia 44.1796
rfoot -23.4718 -25.6012
rtoes 11.1658
lfemur -7.93067 5.3043 -16.5269
ltibia 29.806
lfoot -16.4455 -6.81355
ltoes -0.46836
2241
root -1.08684 17.1531 -21.9791 -360.602 -23.4468 0.101851
lowerback 3.92281 0.00791996 1.32471
upperback 2.20027 0.0461439 3.41037
thorax 0.058599 0.00709255 2.75864
lowerneck -14.4962 0.399504 -8.17891
upperneck 39.1543 1.94907 2.46425
head 16.3954 -0.182124 2.86195
rclavicle 9.93923e-015 3.18055e-015
rhumerus -34.1753 -14.0855 -74.0291
rradius 25.5974
rwrist -7.72388
rhand -31.8366 2.3501
rfingers 7.12502
rthumb -5.09096 -27.5687
lclavicle 9.93923e-015 3.18055e-015
lhumerus -33.6401 6.17396 85.721
lradius 31.6347
lwrist 3.52318
lhand -16.3785 23.6905
lfingers 7.12502
lthumb 9.83496 53.4408
rfemur -12.9841 -22.922 23.2205
rtibia 44.6138
rfoot -23.1516 -25.8289
rtoes 10.3089
lfemur -7.65081 4.74225 -17.0143
ltibia 29.493
lfoot -16.2856 -6.86462
ltoes 0.787949
2242
root -1.05988 17.1696 -21.9671 -360.714 -22.6414 0.222
lowerback 3.95217 0.0115027 1.29578
upperback 2.27289 0.0489007 3.31115
thorax 0.116595 0.00885466 2.67236
lowerneck -13.8694 0.658507 -6.81968
upperneck 38.0393 2.4492 0.934393
head 15.6852 0.0683347 2.00126
rclavicle -2.23633e-014 -6.36111e-015
rhumerus -34.1241 -14.881 -73.7288
rradius 25.3014
rwrist -7.60391
rhand -20.4524 11.5696
rfingers 7.12502
rthumb 5.90304 -18.3282
lclavicle -2.23633e-014 -6.36111e-015
lhumerus -33.3705 6.10493 85.6352
lradius 31.1993
lwrist 3.36892
lhand -16.5884 23.585
lfingers 7.12502
lthumb 9.63245 53.3448
rfemur -13.0311 -23.1254 22.8782
rtibia 44.9949
rfoot -23.0215 -25.97
rtoes 10.3961
lfemur -7.58344 4.15915 -17.2646
ltibia 29.2146
lfoot -15.9861 -7.26284
ltoes 2.29911
2243
root -1.0349 17.1809 -21.956 -360.778 -22.1 0.268975
lowerback 4.11666 0.037948 1.16871
upperback 2.16383 0.090159 3.37154
thorax -0.0890826 0.0291371 2.8048
lowerneck -13.683 0.654646 -6.96497
upperneck 38.0246 2.43724 1.0418
head 15.6294 0.062394 2.06891
rclavicle -1.31198e-014 1.59028e-015
rhumerus -34.3904 -14.8895 -73.4256
rradius 25.1521
rwrist -7.5858
rhand -20.5456 11.5679
rfingers 7.12502
rthumb 5.81306 -18.3323
lclavicle -1.31198e-014 1.59028e-015
lhumerus -33.4924 6.29266 85.6308
lradius 30.9034
lwrist 2.97369
lhand -16.4834 24.26
lfingers 7.12502
lthumb 9.73377 54.0151
rfemur -13.0944 -22.9035 22.6614
rtibia 45.3515
rfoot -22.9144 -26.1888
rtoes 10.6389
lfemur -7.49019 3.82039 -17.4221
ltibia 28.9734
lfoot -15.7638 -7.59873
ltoes 2.88597
2244
root -1.0101 17.1812 -21.9444 -360.89 -21.7728 0.262351
lowerback 4.19891 0.10057 0.986449
upperback 2.12805 0.171597 3.55379
thorax -0.175883 0.0678938 3.09275
lowerneck -13.4819 0.608973 -7.37832
upperneck 38.0588 2.43639 1.16273
head 15.5934 0.021877 2.19194
rclavicle -1.22253e-014 3.18055e-015
rhumerus -34.5104 -14.8295 -73.0753
rradius 25.1428
rwrist -7.26057
rhand -20.4557 10.6546
rfingers 7.12502
rthumb 5.89991 -19.2433
lclavicle -1.22253e-014 3.18055e-015
lhumerus -33.4977 6.73819 85.7345
lradius 30.3242
lwrist 2.47309
lhand -16.8945 24.0255
lfingers 7.12502
lthumb 9.33717 53.7987
rfemur -13.1365 -22.4841 22.5016
rtibia 45.7305
rfoot -22.5599 -26.4747
rtoes 10.0754
lfemur -7.29874 3.64869 -17.5225
ltibia 28.7563
lfoot -15.6315 -7.7262
ltoes 2.36501
2245
root -0.989091 17.1823 -21.9422 -361.08 -21.0243 0.374785
lowerback 4.08269 0.0995603 0.927884
upperback 2.38386 0.155115 3.43807
thorax 0.152684 0.0575037 3.00701
lowerneck -13.6956 0.453955 -7.42768
upperneck 37.96 2.17303 1.36359
head 15.6044 -0.0610316 2.2461
rclavicle 2.36554e-014 -2.06736e-014
rhumerus -34.189 -15.6565 -73.0354
rradius 25.0575
rwrist -6.77657
rhand -20.4828 9.66898
rfingers 7.12502
rthumb 5.87373 -20.2296
lclavicle 2.36554e-014 -2.06736e-014
lhumerus -32.9244 6.80113 85.567
lradius 29.6895
lwrist 2.04641
lhand -16.8514 23.4335
lfingers 7.12502
lthumb 9.3787 53.2049
rfemur -13.1629 -22.3465 22.2315
rtibia 46.1768
rfoot -22.3795 -26.723
rtoes 10.0053
lfemur -7.19881 3.50628 -17.6773
ltibia 28.5429
lfoot -15.4354 -8.2964
ltoes 1.91157
2246
root -0.971219 17.1848 -21.9605 -361.353 -19.6672 0.73929
lowerback 4.31614 -0.0820096 0.610161
upperback 2.52071 -0.09501 3.18829
thorax 0.174215 -0.0693985 2.93821
lowerneck -13.8382 0.399837 -7.18791
upperneck 37.7359 1.98483 1.51056
head 15.5327 -0.0726866 2.2343
rclavicle -7.39479e-014 -1.59028e-014
rhumerus -34.0202 -16.0505 -73.3189
rradius 24.9595
rwrist -7.06861
rhand -21.176 9.76676
rfingers 7.12502
rthumb 5.20439 -20.1493
lclavicle -7.39479e-014 -1.59028e-014
lhumerus -32.4997 6.49871 85.2554
lradius 29.3177
lwrist 1.79921
lhand -16.1034 23.1711
lfingers 7.12502
lthumb 10.1004 52.9087
rfemur -13.2559 -22.5316 21.7844
rtibia 46.6765
rfoot -22.2542 -27.2105
rtoes 10.3373
lfemur -7.23051 3.27025 -18.0183
ltibia 28.3054
lfoot -15.1085 -9.47465
ltoes 2.40797
2247
root -0.951892 17.1922 -21.957 -361.291 -19.97 0.824199
lowerback 4.56326 0.14695 0.2231
upperback 2.31141 0.208956 3.34038
thorax -0.194545 0.082015 3.30111
lowerneck -13.7002 0.508574 -7.244
upperneck 37.8078 2.23974 1.30452
head 15.5271 -0.00209164 2.1979
rclavicle -2.79292e-014 -1.27222e-014
rhumerus -34.266 -15.4507 -73.2808
rradius 25.0825
rwrist -7.49393
rhand -21.8724 9.25601
rfingers 7.12502
rthumb 4.532 -20.6755
lclavicle -2.79292e-014 -1.27222e-014
lhumerus -32.9183 6.86117 85.1595
lradius 29.0993
lwrist 1.63497
lhand -15.6525 22.4904
lfingers 7.12502
lthumb 10.5354 52.2063
rfemur -13.6914 -21.4979 21.6798
rtibia 47.1832
rfoot -21.6154 -27.5
rtoes 10.5572
lfemur -7.21488 3.67566 -18.1725
ltibia 28.0325
lfoot -14.9415 -9.61877
ltoes 3.17842
2248
root -0.932397 17.2095 -21.9454 -361.045 -20.0255 0.515641
lowerback 4.66104 0.315869 0.228692
upperback 2.11841 0.444346 3.62935
thorax -0.462492 0.201736 3.5858
lowerneck -13.6855 0.449991 -7.45551
upperneck 37.9972 2.3064 1.09414
head 15.6228 -0.0393844 2.16027
rclavicle 2.71341e-014 6.36111e-015
rhumerus -34.4576 -15.4491 -72.9199
rradius 24.9562
rwrist -7.37763
rhand -23.025 9.67608
rfingers 7.12502
rthumb 3.41896 -20.2763
lclavicle 2.71341e-014 6.36111e-015
lhumerus -33.3301 7.56841 85.0845
lradius 28.8483
lwrist 1.33144
lhand -15.4486 21.7692
lfingers 7.12502
lthumb 10.7321 51.4751
rfemur -14.1369 -20.7572 21.9121
rtibia 47.6823
rfoot -20.882 -27.7104
rtoes 9.98643
lfemur -7.2318 3.74753 -17.9598
ltibia 27.7819
lfoot -14.7586 -9.6292
ltoes 2.66153
